<?xml version="1.0" encoding="utf-8" ?>
<svg baseProfile="full" height="200mm" version="1.1" viewBox="0,0,200,200" width="200mm" xmlns="http://www.w3.org/2000/svg" xmlns:ev="http://www.w3.org/2001/xml-events" xmlns:xlink="http://www.w3.org/1999/xlink"><defs /><rect fill="#1a1a1a" height="200" width="200" x="0" y="0" /><text alignment-baseline="middle" fill="#e1ed5e" style="dominant-baseline: central; font-size:9.0px; font-family:Arial;" text-anchor="middle" x="100.0" y="100.0">2023</text><line stroke="#e1ed5e" stroke-width="0.3" x1="100.0" x2="100.0" y1="15.0" y2="10.0" /><path d="M 100.0 14.0 a86.0,86.0 0 0,1 42.46469731375804,11.215312516191453" fill="none" id="id1" stroke="none" /><text fill="#e1ed5e" style="font-size:6.75px; font-family:Arial;" text-anchor="middle"><textPath startOffset="22.20632615414155" xlink:href="#id1">January</textPath></text><line stroke="#e1ed5e" stroke-width="0.3" x1="143.23703022742887" x2="145.7803849466894" y1="26.81831364943548" y2="22.513508569990506" /><path d="M 143.74570117128098 25.957352633546492 a86.0,86.0 0 0,1 28.547481713284135,27.462654790039103" fill="none" id="id2" stroke="none" /><text fill="#e1ed5e" style="font-size:6.75px; font-family:Arial;" text-anchor="middle"><textPath startOffset="19.985693538727396" xlink:href="#id2">February</textPath></text><line stroke="#e1ed5e" stroke-width="0.3" x1="172.23445277983987" x2="176.4835382374775" y1="55.19839476539836" y2="52.563006222186495" /><path d="M 173.08426987136738 54.67131705675599 a86.0,86.0 0 0,1 12.851231095245387,41.99856678651699" fill="none" id="id3" stroke="none" /><text fill="#e1ed5e" style="font-size:6.75px; font-family:Arial;" text-anchor="middle"><textPath startOffset="22.20632615414155" xlink:href="#id3">March</textPath></text><line stroke="#e1ed5e" stroke-width="0.3" x1="184.98032266829074" x2="189.97916517819016" y1="98.17113171792111" y2="98.06355123074" /><path d="M 185.9800911702706 98.14961562048488 a86.0,86.0 0 0,1 -9.607161424134198,41.387399972396054" fill="none" id="id4" stroke="none" /><text fill="#e1ed5e" style="font-size:6.75px; font-family:Arial;" text-anchor="middle"><textPath startOffset="21.466115282336823" xlink:href="#id4">April</textPath></text><line stroke="#e1ed5e" stroke-width="0.3" x1="174.80103733775053" x2="179.2010983576182" y1="140.37084112569926" y2="142.7455964860345" /><path d="M 175.68104954172406 140.8457921977663 a86.0,86.0 0 0,1 -30.038265399797805,32.042727171017184" fill="none" id="id5" stroke="none" /><text fill="#e1ed5e" style="font-size:6.75px; font-family:Arial;" text-anchor="middle"><textPath startOffset="22.206326154141568" xlink:href="#id5">May</textPath></text><line stroke="#e1ed5e" stroke-width="0.3" x1="143.8653032363475" x2="146.44561519142675" y1="172.8068346515853" y2="177.08958963109032" /><path d="M 144.38136562736335 173.6633856474863 a86.0,86.0 0 0,1 -40.68145358897372,12.25698825130547" fill="none" id="id6" stroke="none" /><text fill="#e1ed5e" style="font-size:6.75px; font-family:Arial;" text-anchor="middle"><textPath startOffset="21.466115282336833" xlink:href="#id6">June</textPath></text><path d="M 108.59647513512805 119.15986991738527 l 6.092039898034321 13.577971219958634 a35.88201103914612,35.88201103914612 0 0,0 -0.5657043812744538,0.24798817623141836 l -5.857414842102114 -13.680823949484507" fill="#ffb911" stroke="none" /><path d="M 106.91757812671514 119.82793768551818 l 4.700841614354098 13.474079062286537 a35.270554245017664,35.270554245017664 0 0,0 -0.5749608692451866,0.19505794383162278 l -4.468211012171684 -13.552999993016282" fill="#ffb110" stroke="none" /><path d="M 106.2309692047433 120.05430185196036 l 4.389613196564234 14.127918974504752 a35.79414744301348,35.79414744301348 0 0,0 -0.5899642951715547,0.17775140258428082 l -4.145773926952433 -14.201385746194758" fill="#ffb811" stroke="none" /><path d="M 105.18746579009965 120.34920634021253 l 7.684864613587184 30.14591363993921 a52.110018536089584,52.110018536089584 0 0,0 -0.8710976590030777,0.21409461088220877 l -7.164813669840894 -30.27372950913545" fill="#84ff25" stroke="none" /><path d="M 104.13013068566511 120.58985236759428 l 2.909642580851108 14.505379064668187 a35.79432464690484,35.79432464690484 0 0,0 -0.6051497363897839,0.11597838724761356 l -2.6595252298896197 -14.553314650264268" fill="#ffb811" stroke="none" /><path d="M 103.41894727170886 120.7198165907248 l 0.25077413161941436 1.5197643016750828 a22.540315291664477,22.540315291664477 0 0,0 -0.38336153548281326,0.059873187614236184 l -0.22457673252808397 -1.5238557966364248" fill="#ff0000" stroke="none" /><line stroke="#e1ed5e" stroke-width="0.3" x1="102.19456741930631" x2="102.32365962044197" y1="184.97166512339345" y2="189.96999836594603" /><path d="M 102.22038585953345 185.97133177190398 a86.0,86.0 0 0,1 -42.740103519485714,-10.115201625700543" fill="none" id="id7" stroke="none" /><text fill="#e1ed5e" style="font-size:6.75px; font-family:Arial;" text-anchor="middle"><textPath startOffset="22.20632615414155" xlink:href="#id7">July</textPath></text><path d="M 100.54218724476979 120.99299961872073 l 0.17387583626652642 6.732315080554417 a27.734560056180197,27.734560056180197 0 0,0 -0.47735180892362833,0.00821804429057582 l -0.057964337450230136 -6.734310602124153" fill="#ff4b07" stroke="none" /><path d="M 99.45781275523022 120.99299961872073 l -0.40044151629354835 15.504733244766594 a36.50990349419821,36.50990349419821 0 0,0 -0.6281088140369834,-0.021633337553436726 l 0.6672706820051748 -15.495543108787064" fill="#ffc112" stroke="none" /><path d="M 98.73552117531835 120.96189622390904 l -0.8915536727776228 14.77972995832068 a35.80659601638152,35.80659601638152 0 0,0 -0.6149139015834282,-0.04240806286495225 l 1.145830335139981 -14.762193550939442" fill="#ffb811" stroke="none" /><path d="M 97.2962882734958 120.8252237178851 l -1.0760390804475422 8.288144908289155 a29.35770340006451,29.35770340006451 0 0,0 -0.5005787721895362,-0.06937565654130626 l 1.2185464438239093 -8.268394686255244" fill="#ff6109" stroke="none" /><path d="M 94.46302465271185 120.25689768951611 l -3.900589368674615 14.270217007333182 a35.79370443328508,35.79370443328508 0 0,0 -0.5929292452578849,-0.1675677273200273 l 4.145649782037114 -14.200960486674633" fill="#ffb811" stroke="none" /><path d="M 93.76903079525671 120.05430185196036 l -6.58153454053907 21.182592304355882 a43.181497100981844,43.181497100981844 0 0,0 -0.7079270351850232,-0.22665588106730294 l 6.945182920815033 -21.066163576628874" fill="#eaff1a" stroke="none" /><path d="M 92.7421414339146 119.70592522655815 l -15.323128787670647 41.60406645807948 a65.33617734640454,65.33617734640454 0 0,0 -1.0520051058336557,-0.39777831452767476 l 16.037004114264587 -41.334139893445176" fill="#36ff6b" stroke="none" /><path d="M 91.40352486487194 119.15986991738527 l -5.153687463812507 11.48656627854435 a33.589745801486636,33.589745801486636 0 0,0 -0.5254907861821577,-0.24122704624075833 l 5.350646245762085 -11.396152161969518" fill="#ff9b0e" stroke="none" /><path d="M 90.7491055286396 118.85261126421891 l -6.518413884752149 13.284026037586809 a35.79713037518471,35.79713037518471 0 0,0 -0.5508429903291284,-0.276204110663923 l 6.746110782764037 -13.169854086013585" fill="#ffb811" stroke="none" /><line stroke="#e1ed5e" stroke-width="0.3" x1="58.666819895761336" x2="56.23545636021788" y1="174.27360380694188" y2="178.64263932499728" /><path d="M 58.180547188652646 175.14741091055294 a86.0,86.0 0 0,1 -31.652253787137756,-30.449443065178592" fill="none" id="id8" stroke="none" /><text fill="#e1ed5e" style="font-size:6.75px; font-family:Arial;" text-anchor="middle"><textPath startOffset="22.20632615414155" xlink:href="#id8">August</textPath></text><path d="M 89.4739219176387 118.17145234162733 l -3.469898040831948 5.9901785247957475 a27.922602918895,27.922602918895 0 0,0 -0.41382910251794297,-0.24449752809529188 l 3.572495014378273 -5.929562424406706" fill="#ff4d07" stroke="none" /><path d="M 89.1626897886671 117.98757091392108 l -4.601508982915256 7.637501144396323 a29.916574939431896,29.916574939431896 0 0,0 -0.43880606419661217,-0.26955052435874427 l 4.732294247044177 -7.5571621532092" fill="#ff6909" stroke="none" /><path d="M 83.95833913139862 113.55231037782056 l -16.943132698480895 14.313891496849301 a43.180109003832854,43.180109003832854 0 0,0 -0.4747838044770539,-0.5719076779055635 l 17.187012502851488 -14.020122561829975" fill="#eaff1a" stroke="none" /><path d="M 83.72743513129214 113.27417163493432 l -3.4538548227158805 2.8174453190867395 a25.45725378034968,25.45725378034968 0 0,0 -0.27406805181003524,-0.34194203452244165 l 3.501840786580777 -2.7575754509860384" fill="#ff2a04" stroke="none" /><path d="M 82.85270091963577 112.12312394758628 l -51.363147683895775 36.313695981607694 a83.90355678212734,83.90355678212734 0 0,0 -0.8236096705208629,-1.1864711580971836 l 51.98061826157877 -35.424183561323495" fill="#4dd3ff" stroke="none" /><path d="M 82.05923443525364 110.91462005526583 l -6.382379981655888 3.8828472673982763 a28.470694554871326,28.470694554871326 0 0,0 -0.2511103387483993,-0.42087537158201677 l 6.448271196102519 -3.772409801930148" fill="#ff5507" stroke="none" /><line stroke="#e1ed5e" stroke-width="0.3" x1="26.63291911575756" x2="22.317208475507996" y1="142.92168965132927" y2="145.44649492493687" /><path d="M 25.769776987707644 143.4266507060508 a86.0,86.0 0 0,1 -11.730757126820373,-40.83630448921669" fill="none" id="id9" stroke="none" /><text fill="#e1ed5e" style="font-size:6.75px; font-family:Arial;" text-anchor="middle"><textPath startOffset="21.46611528233685" xlink:href="#id9">September</textPath></text><path d="M 81.69416730710424 110.29060199501025 l -13.076469496258142 7.350921716776502 a36.001003452194325,36.001003452194325 0 0,0 -0.2990202040704801,-0.5428085266774519 l 13.201066109780138 -7.124742671701227" fill="#ffbb11" stroke="none" /><path d="M 81.18737489456691 109.33194174019688 l -6.657247137676287 3.302305876543824 a28.43129622302563,28.43129622302563 0 0,0 -0.2137041675727065,-0.44029388228335337 l 6.713104561863712 -3.187223038295186" fill="#ff5507" stroke="none" /><path d="M 80.20201598880116 107.00284435728193 l -7.073485632139255 2.5019981285630757 a28.502945663098835,28.502945663098835 0 0,0 -0.1596289407193983,-0.4639564223814154 l 7.1155054038018815 -2.3798690030923635" fill="#ff5607" stroke="none" /><path d="M 79.50377843672027 104.57218783832718 l -11.77245490129154 2.6261364788997397 a33.061811108152504,33.061811108152504 0 0,0 -0.11912636757187248,-0.5565187300859561 l 11.815915307587854 -2.4231039293976195" fill="#ff940d" stroke="none" /><line stroke="#e1ed5e" stroke-width="0.3" x1="15.007084014347285" x2="10.007500721073583" y1="101.09737516637583" y2="101.16192664675087" /><path d="M 14.007167355692545 101.11028546245083 a86.0,86.0 0 0,1 10.666146001902534,-42.60595125391555" fill="none" id="id10" stroke="none" /><text fill="#e1ed5e" style="font-size:6.75px; font-family:Arial;" text-anchor="middle"><textPath startOffset="22.20632615414155" xlink:href="#id10">October</textPath></text><path d="M 79.00175016825051 100.2711162175752 l -10.361015838375963 0.13377493109401856 a31.361879411345548,31.361879411345548 0 0,0 -0.0023233219431671387,-0.5398581977581292 l 10.361783457608633 0.044592744867785944" fill="#ff7d0b" stroke="none" /><path d="M 79.54389044137918 95.25157060432595 l -61.3683286758625 -14.245288187022146 a84.0,84.0 0 0,0 0.3390687989567409,-1.4056590733624128 l 61.114027076644945 15.299532492043955" fill="#4dd2ff" stroke="none" /><line stroke="#e1ed5e" stroke-width="0.3" x1="26.266209847984243" x2="21.928928074336255" y1="57.711370442889674" y2="55.22380399835377" /><path d="M 25.398753493254645 57.213857153982495 a86.0,86.0 0 0,1 29.58750427330803,-30.492523968695096" fill="none" id="id11" stroke="none" /><text fill="#e1ed5e" style="font-size:6.75px; font-family:Arial;" text-anchor="middle"><textPath startOffset="21.46611528233685" xlink:href="#id11">November</textPath></text><path d="M 82.95767976084542 87.72973835380427 l -6.062556701362758 -4.3649665026074285 a28.47044351602523,28.47044351602523 0 0,0 0.28977134369968566,-0.39524778715478875 l 5.986522745149439 4.4686767334337185" fill="#ff5507" stroke="none" /><path d="M 84.07557802195018 86.31012108654704 l -11.218431948050352 -9.644241730049258 a35.794073608058746,35.794073608058746 0 0,0 0.4056800359243598,-0.4637624099466465 l 11.050760048548149 9.835919696198847" fill="#ffb811" stroke="none" /><path d="M 85.57189188830299 84.74124197986013 l -11.194290731602607 -11.838764456037062 a37.29320376197298,37.29320376197298 0 0,0 0.4702355402001171,-0.4370326864954883 l 10.988847307607633 12.029701728607197" fill="#ffcb12" stroke="none" /><path d="M 86.93701828274178 83.55741782278169 l -10.299752403529594 -12.964461634076509 a37.55784300672812,37.55784300672812 0 0,0 0.509655359778607,-0.3977940923265631 l 10.075064488591561 13.139834115626293" fill="#ffcf13" stroke="none" /><path d="M 87.51073957382395 83.11751280151077 l -9.259871230275376 -12.517126889045723 a36.569960846378294,36.569960846378294 0 0,0 0.5092883966801025,-0.37001967920775986 l 9.043037517241492 12.67466580307015" fill="#ffc212" stroke="none" /><path d="M 89.00827224532344 82.1063720568725 l -7.744546579814741 -12.607484299132675 a35.796170520773174,35.796170520773174 0 0,0 0.5278024893987097,-0.3179950942403647 l 7.526382024198382 12.73892600283166" fill="#ffb811" stroke="none" /><line stroke="#e1ed5e" stroke-width="0.3" x1="56.762969772571076" x2="54.21961505331055" y1="26.818313649435495" y2="22.513508569990535" /><path d="M 56.25429882871897 25.957352633546506 a86.0,86.0 0 0,1 42.265352541879196,-11.944610805530505" fill="none" id="id12" stroke="none" /><text fill="#e1ed5e" style="font-size:6.75px; font-family:Arial;" text-anchor="middle"><textPath startOffset="22.20632615414155" xlink:href="#id12">December</textPath></text><path d="M 89.63071344664047 81.73862282372117 l -7.71974789398755 -13.59526783954265 a36.63412342204154,36.63412342204154 0 0,0 0.5510398622373563,-0.30665308673689057 l 7.484583942678148 13.726136323839725" fill="#ffc312" stroke="none" /><path d="M 91.23893434514133 80.91482961587045 l -6.538375507817915 -14.243245687003979 a36.67228132664771,36.67228132664771 0 0,0 0.5759606732450199,-0.25841676523439033 l 6.2922327161061204 14.353682782754898" fill="#ffc312" stroke="none" /><path d="M 91.90106846888425 80.62456947434976 l -8.09532843875642 -19.36681068914247 a41.99065741706108,41.99065741706108 0 0,0 0.6692833506704121,-0.2730174834425967 l 7.760761218497627 19.50328905876864" fill="#f8ff18" stroke="none" /><path d="M 94.63758080256005 79.69619591428918 l -3.9790912363778985 -15.066089749409306 a36.58268999257431,36.58268999257431 0 0,0 0.6102186253519527,-0.1555583146866761 l 3.7191637223409466 15.132351060264844" fill="#ffc212" stroke="none" /></svg>