<?xml version="1.0" encoding="utf-8" ?>
<svg baseProfile="full" height="200mm" version="1.1" viewBox="0,0,200,200" width="200mm" xmlns="http://www.w3.org/2000/svg" xmlns:ev="http://www.w3.org/2001/xml-events" xmlns:xlink="http://www.w3.org/1999/xlink"><defs /><rect fill="#1a1a1a" height="200" width="200" x="0" y="0" /><text alignment-baseline="middle" fill="#e1ed5e" style="dominant-baseline: central; font-size:9.0px; font-family:Arial;" text-anchor="middle" x="100.0" y="100.0">2024</text><line stroke="#e1ed5e" stroke-width="0.3" x1="100.0" x2="100.0" y1="15.0" y2="10.0" /><path d="M 100.0 14.0 a86.0,86.0 0 0,1 42.35913384403234,11.155469271406648" fill="none" id="id13" stroke="none" /><text fill="#e1ed5e" style="font-size:6.75px; font-family:Arial;" text-anchor="middle"><textPath startOffset="22.145653131862478" xlink:href="#id13">January</textPath></text><path d="M 102.87502721639298 79.19773525538626 l 2.601472239609931 -18.822957203870853 a40.00187821538215,40.00187821538215 0 0,0 0.679412651807895,0.09985026295614996 l -2.9242099970255078 18.77552586761582" fill="#ffd814" stroke="none" /><path d="M 104.29559338865022 79.4440306129975 l 4.858152247745611 -23.248017176373395 a44.75019886011964,44.75019886011964 0 0,0 0.7506048524905581,0.1635908340341669 l -5.256519516855303 23.16119488420551" fill="#e9ff1a" stroke="none" /><path d="M 104.64783097203109 79.52079915486377 l 5.0538160515295285 -22.268046014680767 a43.83433664450617,43.83433664450617 0 0,0 0.732383775747558,0.1728405768987903 l -5.435331981016971 22.178009294135748" fill="#f4ff19" stroke="none" /><path d="M 105.3480935250658 79.69241777938227 l 6.402624626869168 -24.31180857786097 a46.14075652081985,46.14075652081985 0 0,0 0.7642196806135714,0.2082914722851989 l -6.819025708417431 24.19831661143163" fill="#d8ff1c" stroke="none" /><path d="M 105.69591212413111 79.78721728523813 l 5.15306851634612 -18.28642225604443 a39.99861453002599,39.99861453002599 0 0,0 0.6592914256274367,0.1919101253839584 l -5.466219954355161 18.195268436357956" fill="#ffd814" stroke="none" /><path d="M 106.72888874123014 80.10723608172694 l 13.385822657856657 -39.57280618313998 a62.77543820758737,62.77543820758737 0 0,0 1.0178416365251486,0.3540581570238211 l -14.063170066426824 39.33718959354757" fill="#31ff43" stroke="none" /><path d="M 107.40779381753099 80.34994680014964 l 6.876238677943374 -18.240040039544578 a40.49311978622801,40.49311978622801 0 0,0 0.6483290500143849,0.2507876042398396 l -7.188339990451285 18.1193125471667" fill="#ffdf14" stroke="none" /><path d="M 108.07796709384702 80.6158196554323 l 8.0888693482017 -19.410341786192575 a42.02834219783125,42.02834219783125 0 0,0 0.6635773391207316,0.2832417073229821 l -8.42088176249286 19.26862542921019" fill="#fff316" stroke="none" /><path d="M 108.4095320186766 80.7573450057729 l 7.612772910767736 -17.419514230514178 a40.01036000232518,40.01036000232518 0 0,0 0.6269939630326827,0.28044642462327274 l -7.91068027665605 17.28626405498105" fill="#ffd814" stroke="none" /><path d="M 109.3889696526874 81.21577127319529 l 18.535490281741733 -37.083396996181044 a62.457722233148694,62.457722233148694 0 0,0 0.9549273525161251,0.48759271032150375 l -19.16934485597144 36.7597463341867" fill="#31ff3f" stroke="none" /><line stroke="#e1ed5e" stroke-width="0.3" x1="143.13028292997686" x2="145.6673583964461" y1="26.7553504044142" y2="22.446841604673864" /><path d="M 143.63769802327073 25.89364864446614 a86.0,86.0 0 0,1 29.32050498858742,28.57503671076993" fill="none" id="id14" stroke="none" /><text fill="#e1ed5e" style="font-size:6.75px; font-family:Arial;" text-anchor="middle"><textPath startOffset="20.669276256404974" xlink:href="#id14">February</textPath></text><path d="M 111.8722381534696 82.67804972795209 l 22.86420286948021 -33.35955529155276 a61.44294378636294,61.44294378636294 0 0,0 0.8648969426658838,0.6037652372623891 l -23.433494903319854 32.96214523848524" fill="#30ff32" stroke="none" /><path d="M 112.45986205192187 83.09580414077388 l 15.2156823115687 -20.64299531204252 a46.64469230970795,46.64469230970795 0 0,0 0.6404694100324405,0.48062018547358715 l -15.567804710511908 20.378756099304915" fill="#d2ff1c" stroke="none" /><path d="M 116.35404254752997 86.82634096563983 l 15.25223649244509 -12.286122069142118 a40.58518607313535,40.58518607313535 0 0,0 0.432393740153288,0.5463153654946248 l -15.46089666323994 12.022486759732816" fill="#ffe015" stroke="none" /><path d="M 116.57777611688842 87.10902102172516 l 15.600906662747095 -12.13135938219249 a40.76254460234452,40.76254460234452 0 0,0 0.42480010877285596,0.5560769786503559 l -15.806858748874257 11.861761490301253" fill="#ffe215" stroke="none" /><path d="M 116.7966241395341 87.39550010848427 l 26.541816152823696 -19.917473656594915 a54.183938306829184,54.183938306829184 0 0,0 0.5518969035631115,0.7487541445526831 l -26.879815075970633 19.458913202773356" fill="#7aff26" stroke="none" /><path d="M 117.01052211995028 87.68569379921539 l 3.0811776827073483 -2.230535028632804 a24.803806307683367,24.803806307683367 0 0,0 0.2467209826982086,0.3470439598801821 l -3.1190137639355173 2.1773138420431177" fill="#ff0000" stroke="none" /><path d="M 117.42321728460499 88.27688183743584 l 16.45433746802416 -11.071212582236198 a40.83222048971544,40.83222048971544 0 0,0 0.3863030626622338,0.5849120731144085 l -16.64196496960712 10.78712063078273" fill="#ffe315" stroke="none" /><path d="M 117.62189284568427 88.57770195909679 l 16.493136731655117 -10.690651965034 a40.654861960506274,40.654861960506274 0 0,0 0.3745712637499787,0.5888882412482022 l -16.674225687030983 10.405950049107126" fill="#ffe115" stroke="none" /><path d="M 117.81537515405839 88.88188828441811 l 14.642268023690876 -9.13785818424389 a38.259677432471136,38.259677432471136 0 0,0 0.34293795059017845,0.5601633695015175 l -14.796973938736459 8.88515769861782" fill="#ffc112" stroke="none" /><line stroke="#e1ed5e" stroke-width="0.3" x1="172.87174338648825" x2="177.1583165268699" y1="56.24261187166439" y2="53.66864786411523" /><path d="M 173.72905801456457 55.72781907015455 a86.0,86.0 0 0,1 12.242430191666344,42.057860355516425" fill="none" id="id15" stroke="none" /><text fill="#e1ed5e" style="font-size:6.75px; font-family:Arial;" text-anchor="middle"><textPath startOffset="22.145653131862474" xlink:href="#id15">March</textPath></text><path d="M 118.00360718960297 89.18935116829356 l 4.180821661188058 -2.5104632827801874 a25.876647993944893,25.876647993944893 0 0,0 0.2254056767528728,0.3827881175141841 l -4.223301048070698 2.438323996972447" fill="#ff1001" stroke="none" /><path d="M 118.18653347947321 89.5 l 17.288822848465763 -9.981706525533463 a40.96341305106692,40.96341305106692 0 0,0 0.346368352986543,0.6119996913526513 l -17.457624566473683 9.683450064081693" fill="#ffe515" stroke="none" /><path d="M 118.70294669586156 90.45014215332178 l 4.1276548187556665 -2.1076099611616397 a25.63460397997333,25.63460397997333 0 0,0 0.19675179496546924,0.39363538873330167 l -4.163226526932873 2.0364427162645877" fill="#ff0d01" stroke="none" /><path d="M 119.31412917781788 91.75594674310238 l 3.533620859564013 -1.508292622863223 a24.842059736043876,24.842059736043876 0 0,0 0.16404531685095808,0.3936490418415806 l -3.5589920209514543 1.4474110715803645" fill="#ff0100" stroke="none" /><path d="M 119.58574465831526 92.42381321644754 l 17.725673686135405 -6.856671372637725 a40.00561627360983,40.00561627360983 0 0,0 0.24226127929032612,0.6426268256890189 l -17.840765649240172 6.5513762667545485" fill="#ffd814" stroke="none" /><path d="M 119.71291397450082 92.76114493625339 l 25.045181227747975 -9.196937458736402 a47.680419062500654,47.680419062500654 0 0,0 0.2755470261742194,0.7707540731822834 l -25.19936842396614 8.765648429173202" fill="#c5ff1e" stroke="none" /><path d="M 119.94978838288452 93.4421083053983 l 37.92449440102948 -12.466534585792909 a60.920943878526806,60.920943878526806 0 0,0 0.31805166653524053,0.996292315458821 l -38.13291078334198 11.8136732366427" fill="#32ff2f" stroke="none" /><path d="M 120.16314734710363 94.1308016681162 l 18.278701834400437 -5.320663707339071 a40.03734233125803,40.03734233125803 0 0,0 0.1864243669750752,0.6615543112823333 l -18.367344693450093 5.006101472153724" fill="#ffd914" stroke="none" /><path d="M 120.26092885502905 94.47779374421319 l 3.764876360327232 -1.0261337936687163 a24.9022102161544,24.9022102161544 0 0,0 0.1088707070978517,0.4133998078837281 l -3.781936548229814 0.9613534814121897" fill="#ff0200" stroke="none" /><path d="M 120.51834098615036 95.52812308129327 l 19.136774641811737 -4.170770964230191 a40.58600199447438,40.58600199447438 0 0,0 0.14251927121711214,0.6820063053308463 l -19.205551623853218 3.8416482076139395" fill="#ffe015" stroke="none" /><path d="M 120.592083275326 95.88100663000786 l 18.66483293353415 -3.7334893258400017 a40.03457199368828,40.03457199368828 0 0,0 0.12901371065284797,0.6750542501406726 l -18.726172936469155 3.4125325106660145" fill="#ffd914" stroke="none" /><path d="M 120.7213421655516 96.59031103205396 l 31.991292633707868 -5.2641550287620325 a53.421507252784714,53.421507252784714 0 0,0 0.14113073857663522,0.906160582022721 l -32.07694486442277 4.714206264807871" fill="#82ff25" stroke="none" /><path d="M 120.86939407059847 97.66154086499901 l 41.52622055249613 -4.6530996283144805 a62.78610210973945,62.78610210973945 0 0,0 0.11082526621951715,1.072133918096889 l -41.59997821119731 3.9395611879346606" fill="#31ff43" stroke="none" /><path d="M 120.96210409425399 98.7389718711861 l 18.97991843250694 -1.1417847616044225 a40.014230884956895,40.014230884956895 0 0,0 0.03536192973059617,0.6860119897581175 l -18.996721951694106 0.8158009784695743" fill="#ffd814" stroke="none" /><path d="M 120.99303781780057 99.45929381324524 l 34.63517107624266 -0.8920791475140615 a55.64665756874717,55.64665756874717 0 0,0 0.016398721269990507,0.9551433017461054 l -34.645381229111315 0.29738892979888965" fill="#6aff28" stroke="none" /><line stroke="#e1ed5e" stroke-width="0.3" x1="184.99686870605535" x2="189.99668451229388" y1="99.2704041080226" y2="99.22748670261217" /><path d="M 185.99683186730306 99.26182062694052 a86.0,86.0 0 0,1 -10.086455211305974,41.156179273409016" fill="none" id="id16" stroke="none" /><text fill="#e1ed5e" style="font-size:6.75px; font-family:Arial;" text-anchor="middle"><textPath startOffset="21.40746469413373" xlink:href="#id16">April</textPath></text><path d="M 120.99922638620191 100.18025310272382 l 38.19854981167553 0.3278886086789061 a59.1999570504308,59.1999570504308 0 0,0 -0.017445856360118393,1.0161336711107771 l -38.187292523716735 -0.9835691957587542" fill="#44ff2d" stroke="none" /><path d="M 120.98066250479742 100.90099992219065 l 25.42530432317159 1.0918719659883418 a46.44873836393465,46.44873836393465 0 0,0 -0.04104832170391154,0.7963264749086115 l -25.402814412011107 -1.5281702342736838" fill="#d4ff1c" stroke="none" /><path d="M 120.82617615685814 102.69636545807757 l 19.57848975637217 2.5348274739827037 a40.74189989497535,40.74189989497535 0 0,0 -0.09575410313217804,0.6928289904113059 l -19.532091136684784 -2.8705447725940947" fill="#ffe215" stroke="none" /><path d="M 120.7213421655516 103.40968896794604 l 28.124910380843723 4.62794330038423 a49.503130409168435,49.503130409168435 0 0,0 -0.1451742533787792,0.8373265149322539 l -28.04132130997271 -5.110062848237071" fill="#afff20" stroke="none" /><path d="M 120.592083275326 104.11899336999214 l 18.651845711971134 3.7308915177990434 a40.021327503115046,40.021327503115046 0 0,0 -0.14053639552035832,0.6725175273127665 l -18.58505160562641 -4.050525496397219" fill="#ffd814" stroke="none" /><path d="M 120.43855184770803 104.8234425847677 l 14.824817423753595 3.4986165461208114 a36.23205598021549,36.23205598021549 0 0,0 -0.14805534966963455,0.6041163506640822 l -14.762574547567665 -3.752588721392993" fill="#ffa60f" stroke="none" /><path d="M 120.26092885502905 105.52220625578681 l 18.60447674481537 5.070732867232716 a40.283124403457286,40.283124403457286 0 0,0 -0.18756879276749286,0.6656154746870965 l -18.514689459973294 -5.389356265822821" fill="#ffdc14" stroke="none" /><path d="M 119.94978838288452 106.5578916946017 l 18.534562848670134 6.092678951554495 a40.51027310926268,40.51027310926268 0 0,0 -0.2228346247716589,0.6587709730194119 l -18.42724280232611 -6.4099515990480675" fill="#ffdf14" stroke="none" /><path d="M 119.83427380445688 106.89939002012753 l 38.001808688136904 13.219001723713816 a61.23530129303503,61.23530129303503 0 0,0 -0.3538812262966969,0.989868772593693 l -37.76928729179626 -13.869405452688431" fill="#2fff30" stroke="none" /><path d="M 119.31412917781788 108.2440532568976 l 19.75873820664277 8.433830413215873 a42.483417580951354,42.483417580951354 0 0,0 -0.29205552737210183,0.668280201549522 l -19.6110487972537 -8.771772684541238" fill="#fff817" stroke="none" /><path d="M 119.0197475246899 108.90220220490707 l 36.30425120449615 16.992222672810435 a61.08409019650481,61.08409019650481 0 0,0 -0.4526643544392259,0.9458944026014733 l -36.00720759209701 -17.61292957747701" fill="#31ff2f" stroke="none" /><path d="M 118.5362547648365 109.86951160357373 l 16.86914509944464 8.981869607077892 a40.111306549387635,40.111306549387635 0 0,0 -0.3288260931181806,0.6050029748827153 l -16.712473656711122 -9.27012741543521" fill="#ffda14" stroke="none" /><line stroke="#e1ed5e" stroke-width="0.3" x1="174.33088141563837" x2="178.70328620479359" y1="141.23008692659167" y2="143.65538615756765" /><path d="M 175.20536237346943 141.71514677278685 a86.0,86.0 0 0,1 -30.301960400862466,31.631185727798858" fill="none" id="id17" stroke="none" /><text fill="#e1ed5e" style="font-size:6.75px; font-family:Arial;" text-anchor="middle"><textPath startOffset="22.145653131862474" xlink:href="#id17">May</textPath></text><path d="M 118.36410011445183 110.18625677009912 l 8.32404601701347 4.617208007306219 a30.518841939862774,30.518841939862774 0 0,0 -0.258053717462184,0.45595619252604297 l -8.24355893452991 -4.759420969931385" fill="#ff5507" stroke="none" /><path d="M 118.18653347947321 110.5 l 16.509187063462875 9.531583595192174 a40.063167190384355,40.063167190384355 0 0,0 -0.3489812635518058,0.5926464801025285 l -16.343132089781303 -9.813581243588251" fill="#ffd914" stroke="none" /><path d="M 118.00360718960297 110.81064883170644 l 16.424257973030052 9.862295005543173 a40.157795090797975,40.157795090797975 0 0,0 -0.35995159585350767,0.5879538804140881 l -16.25253841272114 -10.142786002081818" fill="#ffda14" stroke="none" /><path d="M 117.21940702142032 112.02048342749411 l 21.809617975913767 15.224807167478467 a47.59801100725775,47.59801100725775 0 0,0 -0.47345265902004213,0.6659704570125727 l -21.545050218363766 -15.596954851200543" fill="#c6ff1e" stroke="none" /><path d="M 116.79662413953412 112.60449989151573 l 15.203547352635484 11.409025371110292 a40.00825378677557,40.00825378677557 0 0,0 -0.4169393919401427,0.5457870479839371 l -15.005455983341037 -11.668333332335106" fill="#ffd814" stroke="none" /><path d="M 116.35404254752997 113.17365903436017 l 22.209829418848937 17.89066642849159 a49.51933498646004,49.51933498646004 0 0,0 -0.5389429295401598,0.657422743144431 l -21.899439670070148 -18.269291453334514" fill="#afff20" stroke="none" /><path d="M 116.1254893667686 113.45245675266167 l 30.757102843365576 25.65866910620501 a61.05454625406567,61.05454625406567 0 0,0 -0.6783027411276122,0.7990389234803446 l -30.31210553873085 -26.182874812134912" fill="#31ff2f" stroke="none" /><path d="M 115.6541949942343 113.99807769240083 l 21.734339997560856 19.434980846410046 a50.15647467767492,50.15647467767492 0 0,0 -0.5794321940223794,0.6368974828109066 l -21.397510102696597 -19.805215904778624" fill="#a8ff21" stroke="none" /><path d="M 115.16444852881244 114.52719865689866 l 27.857768826647558 26.687112367703108 a59.57793735446918,59.57793735446918 0 0,0 -0.7138378761235623,0.732460546587326 l -27.395544149373187 -27.16139560635817" fill="#40ff2d" stroke="none" /><path d="M 114.65682725009322 115.03919595460226 l 6.649738557154526 6.823217569633632 a30.527608350528723,30.527608350528723 0 0,0 -0.3784369711604992,0.36253405778114 l -6.531629100128715 -6.936363757720352" fill="#ff5507" stroke="none" /><path d="M 114.39649973595853 115.28858382429668 l 27.556261491338983 29.263794771050613 a61.19598526944228,61.19598526944228 0 0,0 -0.7709826579715922,0.7136100381157487 l -27.049849062053422 -29.73252255529874" fill="#2fff2f" stroke="none" /><path d="M 113.03279911837588 116.46651593811092 l 22.482797590848946 28.40628030098659 a57.22696437806102,57.22696437806102 0 0,0 -0.7755345219385746,0.6030603350380588 l -21.991853124275142 -28.788041687645443" fill="#59ff2a" stroke="none" /><path d="M 112.7482090630111 116.68781488649013 l 15.143357543854783 19.823141133213646 a45.94550464689641,45.94550464689641 0 0,0 -0.6308689970437655,0.4734158565876747 l -14.800835557900252 -20.080176017065337" fill="#daff1c" stroke="none" /><path d="M 112.45986205192187 116.90419585922612 l 7.9330097229475385 10.76265126780965 a34.370389133337326,34.370389133337326 0 0,0 -0.4779431575128914,0.34599398811403265 l -7.747085555060679 -10.89724602729676" fill="#ff8c0c" stroke="none" /><path d="M 111.5731344415666 117.5232005979908 l 19.05632016750538 28.85369755624579 a55.57859454913945,55.57859454913945 0 0,0 -0.8006344471465205,0.5189615756494103 l -18.55820008810185 -29.176572973599097" fill="#6aff28" stroke="none" /><path d="M 110.96478420261333 117.91015095944535 l 24.85287524314102 40.595303943585954 a68.59878265379544,68.59878265379544 0 0,0 -1.0096017456344806,0.6062368400392185 l -24.152340740949104 -41.015954784161096" fill="#39ff89" stroke="none" /><line stroke="#e1ed5e" stroke-width="0.3" x1="143.1302829299769" x2="145.66735839644613" y1="173.24464959558577" y2="177.55315839532614" /><path d="M 143.63769802327073 174.10635135553383 a86.0,86.0 0 0,1 -40.68552437913181,11.842963189579606" fill="none" id="id18" stroke="none" /><text fill="#e1ed5e" style="font-size:6.75px; font-family:Arial;" text-anchor="middle"><textPath startOffset="21.407464694133747" xlink:href="#id18">June</textPath></text><path d="M 109.06512990194946 118.94263497670748 l 18.135791429263428 37.896828922921316 a63.01281439250304,63.01281439250304 0 0,0 -0.9797330985653443,0.45856455975280164 l -17.482569616826577 -38.20256971424465" fill="#32ff46" stroke="none" /><path d="M 108.4095320186766 119.2426549942271 l 23.14299134649005 52.95569325687319 a78.7918981932568,78.7918981932568 0 0,0 -1.24402999055363,0.531002428371488 l -22.23052628076599 -53.34517033490408" fill="#46fff9" stroke="none" /><path d="M 107.06938296918513 119.77432235084164 l 13.892344773216289 38.859360845501705 a62.26799205944991,62.26799205944991 0 0,0 -1.00961389917091,0.35119612287275287 l -13.223225102000356 -39.092115400943044" fill="#31ff3d" stroke="none" /><path d="M 106.72888874123015 119.89276391827305 l 11.747954610819649 34.73074033215458 a57.66386179274392,57.66386179274392 0 0,0 -0.9404076915923026,0.30913068709659136 l -11.150024181579612 -34.92729194065319" fill="#54ff2b" stroke="none" /><path d="M 106.0420521117495 120.11202640906438 l 13.697648435021662 45.59501672147388 a68.60809933699238,68.60809933699238 0 0,0 -1.1308574597632397,0.3291761252438666 l -12.912930962876816 -45.82343654102027" fill="#39ff8a" stroke="none" /><path d="M 105.69591212413111 120.21278271476187 l 5.420333550372474 19.234851575580716 a40.98398185877663,40.98398185877663 0 0,0 -0.6788091025827409,0.1850124394389272 l -5.089343046855038 -19.325064509163788" fill="#ffe515" stroke="none" /><path d="M 104.9986988182912 120.39639698878246 l 9.958185489889324 40.63279503787928 a62.83526611414525,62.83526611414525 0 0,0 -1.0498511662215093,0.24776201663175712 l -9.259202169927937 -40.79775319815727" fill="#31ff44" stroke="none" /><path d="M 104.29559338865022 120.5559693870025 l 8.219540276091998 39.33347572817476 a61.18312027716628,61.18312027716628 0 0,0 -1.029926097340969,0.20601406423081628 l -7.54311769322007 -39.46877918906844" fill="#30ff2f" stroke="none" /><path d="M 103.58742460773223 120.69131181640829 l 10.060814345749714 58.028103588912856 a79.89380944908594,79.89380944908594 0 0,0 -1.3533345422776617,0.22269068392759023 l -9.063202300418979 -58.19226027133612" fill="#48faff" stroke="none" /><path d="M 102.51750503828377 120.84855314841334 l 2.920068756319068 24.182358222663947 a45.35802230787371,45.35802230787371 0 0,0 -0.773816712728629,0.08670777668844956 l -2.50451614198964 -24.228921759859364" fill="#e1ff1b" stroke="none" /><path d="M 102.15924093988457 120.88869738790638 l 3.1591749380723555 30.5621517533746 a51.72499806485987,51.72499806485987 0 0,0 -0.8840059233041642,0.08371628003439796 l -2.634069451383176 -30.61187978891418" fill="#96ff23" stroke="none" /><path d="M 101.80034050326958 120.92268563240118 l 0.32877493290392557 3.8208630825502223 a24.834982092800587,24.834982092800587 0 0,0 -0.42506964658830154,0.03290307897426515 l -0.2631362915403882 -3.8259439285195413" fill="#ff0000" stroke="none" /><path d="M 101.44090949804482 120.95050786540614 l 0.26262071585090535 3.818447571147771 a24.827468026515486,24.827468026515486 0 0,0 -0.42544307579010654,0.025593598971179236 l -0.1970332879283337 -3.8223931479436417" fill="#ff0000" stroke="none" /><path d="M 101.08105385017728 120.97215588758144 l 1.8575910242652889 36.03676961131499 a57.08461456677106,57.08461456677106 0 0,0 -0.9790670301419796,0.04204535094044508 l -1.2386982335224797 -36.06334753068126" fill="#5aff2a" stroke="none" /><line stroke="#e1ed5e" stroke-width="0.3" x1="101.45913802915013" x2="101.54496967792366" y1="184.9874750549273" y2="189.98673829345242" /><path d="M 101.47630435890484 185.9873277026323 a86.0,86.0 0 0,1 -42.54439059252881,-10.42667462771756" fill="none" id="id19" stroke="none" /><text fill="#e1ed5e" style="font-size:6.75px; font-family:Arial;" text-anchor="middle"><textPath startOffset="22.145653131862474" xlink:href="#id19">July</textPath></text><path d="M 100.0 121.0 l 4.939382260814613e-15 40.33311697914536 a61.33311697914536,61.33311697914536 0 0,0 -1.0528645109480432,-0.009037575544730123 l 0.6923715860991861 -40.32717380179506" fill="#30ff31" stroke="none" /><path d="M 99.27912038922189 120.98762331915562 l -1.3884629396159387 40.423583540964636 a61.44742186627021,61.44742186627021 0 0,0 -1.0538942111296792,-0.0452587520536085 l 2.0821829113464565 -40.393792220485196" fill="#30ff32" stroke="none" /><path d="M 98.55909050195518 120.95050786540614 l -4.304968473982353 62.59329680099537 a83.74116318637613,83.74116318637613 0 0,0 -1.433293831560484,-0.1109460073465044 l 5.3788313003180726 -62.51017302665381" fill="#4dd4ff" stroke="none" /><path d="M 96.05791012581884 120.62667999033965 l -8.949903833928373 46.82967872849425 a68.6772439267472,68.6772439267472 0 0,0 -1.156078432959657,-0.23124806445676793 l 9.752478752418988 -46.66914126737462" fill="#39ff8a" stroke="none" /><path d="M 94.30408787586889 120.21278271476187 l -10.876631823598341 38.59732926487066 a61.10056042260448,61.10056042260448 0 0,0 -1.0071117727693906,-0.29315555924893016 l 11.53760360874934 -38.40493001131921" fill="#30ff2f" stroke="none" /><path d="M 93.61358852112213 120.00534299687104 l -19.15923443663362 60.0160289906131 a84.0,84.0 0 0,0 -1.3699090494090258,-0.4503163143919138 l 20.18666622369039 -59.67829175481917" fill="#4dd2ff" stroke="none" /><line stroke="#e1ed5e" stroke-width="0.3" x1="58.13341422392154" x2="55.67067388415222" y1="173.97424548756322" y2="178.32567169271397" /><path d="M 57.64086615596768 174.84453072859336 a86.0,86.0 0 0,1 -31.369924170532247,-30.572349798747897" fill="none" id="id20" stroke="none" /><text fill="#e1ed5e" style="font-size:6.75px; font-family:Arial;" text-anchor="middle"><textPath startOffset="22.145653131862474" xlink:href="#id20">August</textPath></text><path d="M 89.65649057296885 118.27599006163327 l -19.667339041130045 34.75030359764781 a60.929786188852205,60.929786188852205 0 0,0 -0.905844675229288,-0.5229896670876225 l 20.260976184219732 -34.40756703328402" fill="#32ff2f" stroke="none" /><path d="M 87.83215693770417 117.11559508785305 l -12.106292376764904 17.029016340450276 a41.89377210163446,41.89377210163446 0 0,0 -0.5825608095591969,-0.4217291003122913 l 12.396834196698055 -16.81868646876492" fill="#fff116" stroke="none" /><path d="M 87.54013794807813 116.9041958592261 l -24.7835696760155 33.62367208788821 a62.77052370463827,62.77052370463827 0 0,0 -0.8618901378446827,-0.646778427540802 l 25.35711280277095 -33.19327463308339" fill="#31ff43" stroke="none" /><path d="M 87.2517909369889 116.68781488649013 l -13.241972924374966 17.334167631048302 a42.81337237547561,42.81337237547561 0 0,0 -0.5802028578423424,-0.45116925158381604 l 13.537585726852537 -17.104297327843692" fill="#fffd17" stroke="none" /><path d="M 84.3458050057657 113.99807769240083 l -14.847847934516652 13.277037179418588 a40.918290703526594,40.918290703526594 0 0,0 -0.4637190699602528,-0.5276271778791913 l 15.073578068435497 -13.020197723728097" fill="#ffe415" stroke="none" /><path d="M 84.1078160697243 113.72728997021213 l -23.18154407515071 20.02366565054762 a51.63219175627294,51.63219175627294 0 0,0 -0.573622430227702,-0.675725780455147 l 23.521861068885524 -19.62277308764292" fill="#97ff23" stroke="none" /><path d="M 83.8745106332314 113.45245675266167 l -23.929426146278107 19.962778370758098 a52.16295807477502,52.16295807477502 0 0,0 -0.5677147612338964,-0.6925196995763967 l 24.268587726750635 -19.549056389483205" fill="#91ff24" stroke="none" /><line stroke="#e1ed5e" stroke-width="0.3" x1="26.387840678322732" x2="22.057713659400548" y1="142.50000000000003" y2="145.00000000000006" /><path d="M 25.521815274538298 143.00000000000003 a86.0,86.0 0 0,1 -11.493303480769221,-40.785679425670985" fill="none" id="id21" stroke="none" /><text fill="#e1ed5e" style="font-size:6.75px; font-family:Arial;" text-anchor="middle"><textPath startOffset="21.40746469413373" xlink:href="#id21">September</textPath></text><line stroke="#e1ed5e" stroke-width="0.3" x1="15.003131293944662" x2="10.003315487706104" y1="100.72959589197737" y2="100.7725132973878" /><path d="M 14.003168132696942 100.73817937305945 a86.0,86.0 0 0,1 10.791469493833604,-42.45332614584628" fill="none" id="id22" stroke="none" /><text fill="#e1ed5e" style="font-size:6.75px; font-family:Arial;" text-anchor="middle"><textPath startOffset="22.145653131862435" xlink:href="#id22">October</textPath></text><line stroke="#e1ed5e" stroke-width="0.3" x1="26.387840678322718" x2="22.05771365940052" y1="57.49999999999999" y2="54.99999999999999" /><path d="M 25.521815274538284 56.99999999999999 a86.0,86.0 0 0,1 29.574782752854787,-30.34633250058573" fill="none" id="id23" stroke="none" /><text fill="#e1ed5e" style="font-size:6.75px; font-family:Arial;" text-anchor="middle"><textPath startOffset="21.40746469413373" xlink:href="#id23">November</textPath></text><line stroke="#e1ed5e" stroke-width="0.3" x1="56.869717070023135" x2="54.33264160355391" y1="26.7553504044142" y2="22.446841604673864" /><path d="M 56.362301976729285 25.89364864446614 a86.0,86.0 0 0,1 42.16139366436587,-11.88097634709845" fill="none" id="id24" stroke="none" /><text fill="#e1ed5e" style="font-size:6.75px; font-family:Arial;" text-anchor="middle"><textPath startOffset="22.145653131862474" xlink:href="#id24">December</textPath></text></svg>